<?xml version="1.0" encoding="UTF-8" standalone="no"?>
<svg
   width="420"
   height="300"
   viewBox="0 0 420 300"
   version="1.1"
   id="svg3"
   xmlns="http://www.w3.org/2000/svg"
   xmlns:svg="http://www.w3.org/2000/svg">
  <defs
     id="defs3" />
  <g
     transform="translate(162 26) scale(4)"
     id="g2">
    <path
       d="M 19 4.2 H 8.3 C 5.9 4.2 4.2 5.9 4.2 8.3 V 10.4 H 8.6"
       fill="none"
       stroke="#22272B"
       stroke-width="2.55"
       stroke-linecap="round"
       stroke-linejoin="round"
       id="path1" />
    <path
       d="M 5 19.8 H 15.7 C 18.1 19.8 19.8 18.1 19.8 15.7 V 13.6 H 15.4"
       fill="none"
       stroke="#22272B"
       stroke-width="2.55"
       stroke-linecap="round"
       stroke-linejoin="round"
       id="path2" />
    <rect
       x="10.25"
       y="10.25"
       width="3.5"
       height="3.5"
       rx="0.72"
       fill="#3C6F82"
       transform="rotate(45 12 12)"
       id="rect2" />
  </g>
  <path
     d="m 80.921875,250.84375 c 11.882812,0 19.582035,-6.1875 19.582035,-15.60938 0,-7.48828 -4.851566,-12.02343 -15.363285,-14.51953 l -5.660156,-1.33593 c -7.207032,-1.72266 -10.019532,-3.90235 -10.019532,-7.69922 0,-4.7461 4.464844,-8.08594 10.792969,-8.08594 6.609375,0 10.898438,3.69141 11.285156,9.70312 h 7.558594 c -0.316406,-10.23046 -7.453125,-16.52343 -18.738281,-16.52343 -11.25,0 -18.667969,6.08203 -18.667969,15.29297 0,7.24218 4.640625,11.63671 15.222656,14.13281 l 5.730469,1.37109 c 7.277344,1.72266 10.054688,4.04297 10.054688,8.08594 0,5.09766 -4.675782,8.36719 -11.777344,8.36719 -7.839844,0 -12.445313,-4.07813 -12.480469,-11.00391 h -7.804687 c 0,11.07422 7.734375,17.82422 20.285156,17.82422 z m 42.257815,0 c 8.40234,0 15.01172,-4.95703 16.38281,-12.12891 h -7.13672 c -1.05469,3.51563 -4.28906,5.94141 -9.14062,5.94141 -6.50391,0 -10.23047,-4.53516 -10.47657,-11.21484 H 140.125 v -2.00391 c 0,-11.46094 -6.82031,-19.40625 -17.33203,-19.40625 -10.125,0 -17.29688,8.15625 -17.29688,19.47656 0,11.21485 6.67969,19.33594 17.6836,19.33594 z m -10.30078,-23.02734 c 0.63281,-5.90625 4.39453,-9.59766 9.98437,-9.59766 5.625,0 9.42188,3.69141 10.01953,9.59766 z M 164.41797,212.875 h -7.52344 V 202.75 h -7.45312 v 10.125 h -6.53907 v 6.11719 h 6.53907 v 22.14843 c 0,5.97657 3.33984,8.85938 10.30078,8.85938 h 4.67578 v -6.11719 h -3.6211 c -2.95312,0 -3.90234,-0.94922 -3.90234,-3.6914 v -21.19922 h 7.52344 z m 5.87109,51.82031 h 7.41797 v -20.28515 h 0.10547 c 2.49609,4.2539 6.46875,6.32812 11.32031,6.32812 9.66797,0 16.10156,-7.80469 16.10156,-19.30078 0,-11.46094 -6.46875,-19.30078 -16.0664,-19.30078 -4.81641,0 -9.14063,2.0039 -11.4961,6.08203 h -0.10546 V 212.875 h -7.27735 z m 17.33203,-20.35547 c -6.32812,0 -10.40625,-5.09765 -10.40625,-12.90234 0,-7.80469 4.07813,-12.9375 10.40625,-12.9375 5.97657,0 10.08985,4.53516 10.08985,12.9375 0,8.36719 -4.11328,12.90234 -10.08985,12.90234 z M 211.77344,250 h 7.41797 v -37.125 h -7.41797 z m 31.64062,0.84375 c 8.40235,0 15.01172,-4.95703 16.38281,-12.12891 h -7.13671 c -1.05469,3.51563 -4.28907,5.94141 -9.14063,5.94141 -6.50391,0 -10.23047,-4.53516 -10.47656,-11.21484 h 27.3164 v -2.00391 c 0,-11.46094 -6.82031,-19.40625 -17.33203,-19.40625 -10.125,0 -17.29687,8.15625 -17.29687,19.47656 0,11.21485 6.67969,19.33594 17.68359,19.33594 z m -10.30078,-23.02734 c 0.63281,-5.90625 4.39453,-9.59766 9.98438,-9.59766 5.625,0 9.42187,3.69141 10.01953,9.59766 z m 49.53516,23.02734 c 8.85937,0 15.39843,-5.83594 16.24218,-13.57031 h -7.48828 c -0.98437,4.32422 -3.62109,7.17187 -8.71875,7.17187 -6.43359,0 -10.23047,-5.0625 -10.23047,-12.9375 0,-7.94531 3.83204,-13.07812 10.23047,-13.07812 5.02735,0 8.05078,2.95312 8.82422,7.13672 h 7.38281 c -0.91406,-7.875 -7.38281,-13.53516 -16.24218,-13.53516 -10.58203,0 -17.71875,8.05078 -17.71875,19.47656 0,11.35547 7.10156,19.33594 17.71875,19.33594 z m 38.39062,0 c 8.40235,0 15.01172,-4.95703 16.38281,-12.12891 h -7.13671 c -1.05469,3.51563 -4.28907,5.94141 -9.14063,5.94141 -6.50391,0 -10.23047,-4.53516 -10.47656,-11.21484 h 27.3164 v -2.00391 c 0,-11.46094 -6.82031,-19.40625 -17.33203,-19.40625 -10.125,0 -17.29687,8.15625 -17.29687,19.47656 0,11.21485 6.67969,19.33594 17.68359,19.33594 z m -10.30078,-23.02734 c 0.63281,-5.90625 4.39453,-9.59766 9.98438,-9.59766 5.625,0 9.42187,3.69141 10.01953,9.59766 z"
     id="text2"
     style="font-weight:500;font-size:72px;font-family:'Inter Display';fill:#22272b"
     aria-label="Setpıece" />
  <rect
     x="212.484375"
     y="195"
     width="6"
     height="6"
     rx="1"
     fill="#3C6F82"
     transform="rotate(45 215.484375 198)"
     id="rect3" />
</svg>
