<?xml version="1.0" encoding="UTF-8" standalone="no"?>
<svg
   width="360"
   height="120"
   viewBox="0 0 360 120"
   version="1.1"
   id="svg1"
   xmlns="http://www.w3.org/2000/svg"
   xmlns:svg="http://www.w3.org/2000/svg">
  <defs
     id="defs1" />
  <path
     d="m 40.921875,84.84375 c 11.882812,0 19.582031,-6.1875 19.582031,-15.609375 0,-7.488281 -4.851562,-12.023438 -15.363281,-14.519531 L 39.480469,53.378906 C 32.273437,51.65625 29.460937,49.476562 29.460937,45.679687 c 0,-4.746093 4.464844,-8.085937 10.792969,-8.085937 6.609375,0 10.898438,3.691406 11.285156,9.703125 h 7.558594 C 58.78125,37.066406 51.644531,30.773437 40.359375,30.773437 c -11.25,0 -18.667969,6.082032 -18.667969,15.292969 0,7.242188 4.640625,11.636719 15.222656,14.132813 l 5.730469,1.371093 c 7.277344,1.722657 10.054688,4.042969 10.054688,8.085938 0,5.097656 -4.675782,8.367187 -11.777344,8.367187 -7.839844,0 -12.445313,-4.078125 -12.480469,-11.003906 h -7.804687 c 0,11.074219 7.734375,17.824219 20.285156,17.824219 z m 42.257812,0 c 8.402344,0 15.011719,-4.957031 16.382813,-12.128906 h -7.136719 c -1.054687,3.515625 -4.289062,5.941406 -9.140625,5.941406 -6.503906,0 -10.230469,-4.535156 -10.476562,-11.214844 H 100.125 V 65.4375 c 0,-11.460938 -6.820313,-19.40625 -17.332031,-19.40625 -10.125,0 -17.296875,8.15625 -17.296875,19.476562 0,11.214844 6.679687,19.335938 17.683593,19.335938 z M 72.878906,61.816406 c 0.632813,-5.90625 4.394531,-9.597656 9.984375,-9.597656 5.625,0 9.421875,3.691406 10.019531,9.597656 z M 124.41797,46.875 h -7.52344 V 36.75 h -7.45312 v 10.125 h -6.53907 v 6.117187 h 6.53907 v 22.148438 c 0,5.976562 3.33984,8.859375 10.30078,8.859375 h 4.67578 v -6.117188 h -3.62109 c -2.95313,0 -3.90235,-0.949218 -3.90235,-3.691406 V 52.992187 h 7.52344 z m 5.87109,51.820312 h 7.41797 V 78.410156 h 0.10547 c 2.49609,4.253906 6.46875,6.328125 11.32031,6.328125 9.66797,0 16.10156,-7.804687 16.10156,-19.300781 0,-11.460938 -6.46875,-19.300781 -16.0664,-19.300781 -4.81641,0 -9.14063,2.003906 -11.4961,6.082031 h -0.10546 V 46.875 h -7.27735 z m 17.33203,-20.355468 c -6.32812,0 -10.40625,-5.097657 -10.40625,-12.902344 0,-7.804688 4.07813,-12.9375 10.40625,-12.9375 5.97657,0 10.08985,4.535156 10.08985,12.9375 0,8.367187 -4.11328,12.902344 -10.08985,12.902344 z M 171.77344,84 h 7.41797 V 46.875 h -7.41797 z m 31.64062,0.84375 c 8.40235,0 15.01172,-4.957031 16.38281,-12.128906 h -7.13671 c -1.05469,3.515625 -4.28907,5.941406 -9.14063,5.941406 -6.50391,0 -10.23047,-4.535156 -10.47656,-11.214844 h 27.3164 V 65.4375 c 0,-11.460938 -6.82031,-19.40625 -17.33203,-19.40625 -10.125,0 -17.29687,8.15625 -17.29687,19.476562 0,11.214844 6.67969,19.335938 17.68359,19.335938 z M 193.11328,61.816406 c 0.63281,-5.90625 4.39453,-9.597656 9.98438,-9.597656 5.625,0 9.42187,3.691406 10.01953,9.597656 z m 49.53516,23.027344 c 8.85937,0 15.39843,-5.835938 16.24218,-13.570313 h -7.48828 c -0.98437,4.324219 -3.62109,7.171875 -8.71875,7.171875 -6.43359,0 -10.23047,-5.0625 -10.23047,-12.9375 0,-7.945312 3.83204,-13.078125 10.23047,-13.078125 5.02735,0 8.05078,2.953125 8.82422,7.136719 h 7.38281 c -0.91406,-7.875 -7.38281,-13.535156 -16.24218,-13.535156 -10.58203,0 -17.71875,8.050781 -17.71875,19.476562 0,11.355469 7.10156,19.335938 17.71875,19.335938 z m 38.39062,0 c 8.40235,0 15.01172,-4.957031 16.38281,-12.128906 h -7.13671 c -1.05469,3.515625 -4.28907,5.941406 -9.14063,5.941406 -6.50391,0 -10.23047,-4.535156 -10.47656,-11.214844 h 27.3164 V 65.4375 c 0,-11.460938 -6.82031,-19.40625 -17.33203,-19.40625 -10.125,0 -17.29687,8.15625 -17.29687,19.476562 0,11.214844 6.67969,19.335938 17.68359,19.335938 z M 270.73828,61.816406 c 0.63281,-5.90625 4.39453,-9.597656 9.98438,-9.597656 5.625,0 9.42187,3.691406 10.01953,9.597656 z"
     id="text1"
     style="font-weight:500;font-size:72px;font-family:'Inter Display';fill:#22272b"
     aria-label="Setpıece" />
  <rect
     x="172.484375"
     y="29.5"
     width="6"
     height="6"
     rx="1"
     fill="#3C6F82"
     transform="rotate(45 175.484375 32.5)"
     id="rect1" />
</svg>
